PathFileType  4	(X/Y/Z) C:\Users\antoi\Documents\MyRepositories\mobilecap\ResultsAnalysis
DataRate	CameraRate	NumFrames	NumMarkers	Units	OrigDataRate	OrigDataStartFrame	OrigNumFrames
100.0	100.0	4	51	mm	100.0	148	295
Frame#	Time	r_knee			r_shank_antsup			r_ankle			r_calc			r_5meta			r_toe			L_knee			L_shank_antsup			L_ankle			L_calc			L_5meta			L_toe			r_sh2			r_sh3			r_sh4			L_sh2			L_sh3			r_thigh1			r_thigh2			r_thigh3			r_thigh4			r_thigh5			L_thigh1			L_thigh2			L_thigh3			L_thigh4			r.ASIS			r.PSIS			L.ASIS			L.PSIS			C7			R_Shoulder			L_Shoulder			R_Sternum			L_Sternum			R_humerus			R_elbow_med			R_elbow_lat			R_forearm			R_wrist_radius			R_wrist_ulna			L_humerus			L_elbow_med			L_elbow_lat			L_forearm			L_wrist_radius			L_wrist_ulna			R_HJC			L_HJC			R_HJC_reg			L_HJC_reg			
		X1	Y1	Z1	X2	Y2	Z2	X3	Y3	Z3	X4	Y4	Z4	X5	Y5	Z5	X6	Y6	Z6	X7	Y7	Z7	X8	Y8	Z8	X9	Y9	Z9	X10	Y10	Z10	X11	Y11	Z11	X12	Y12	Z12	X13	Y13	Z13	X14	Y14	Z14	X15	Y15	Z15	X16	Y16	Z16	X17	Y17	Z17	X18	Y18	Z18	X19	Y19	Z19	X20	Y20	Z20	X21	Y21	Z21	X22	Y22	Z22	X23	Y23	Z23	X24	Y24	Z24	X25	Y25	Z25	X26	Y26	Z26	X27	Y27	Z27	X28	Y28	Z28	X29	Y29	Z29	X30	Y30	Z30	X31	Y31	Z31	X32	Y32	Z32	X33	Y33	Z33	X34	Y34	Z34	X35	Y35	Z35	X36	Y36	Z36	X37	Y37	Z37	X38	Y38	Z38	X39	Y39	Z39	X40	Y40	Z40	X41	Y41	Z41	X42	Y42	Z42	X43	Y43	Z43	X44	Y44	Z44	X45	Y45	Z45	X46	Y46	Z46	X47	Y47	Z47	X48	Y48	Z48	X49	Y49	Z49	X50	Y50	Z50	X51	Y51	Z51	

148	1.47000000	-160.07382	502.85358	-382.15791	-129.77368	378.18553	-397.87868	-293.43247	91.13617	-466.33419	-356.01388	62.53538	-535.86752	-189.71442	35.12053	-395.93762	-127.40441	56.92447	-453.94645	-121.41363	556.35995	-849.99288	-76.40765	450.29145	-845.53644	-231.45444	128.09418	-854.85215	-302.96937	126.78190	-807.92818	-119.97229	17.66075	-853.85868	-82.34433	50.80493	-791.25542	-149.71339	270.43335	-439.40846	-200.52241	376.51715	-366.30391	-216.23554	261.74648	-389.33534	-157.36891	466.18408	-881.78259	-156.85975	345.92015	-902.04723	-186.74111	756.54372	-393.85452	-128.93899	659.91369	-394.81490	-149.56487	619.16068	-345.74204	-269.80582	702.84090	-338.89341	-203.95604	604.84554	-342.55947	-192.17511	808.52980	-816.70449	-107.15727	701.91603	-832.97455	-278.09768	744.47116	-853.64332	-191.58396	637.66807	-867.29344	-285.87231	936.40669	-443.79259	-473.79723	1011.47709	-519.79339	-271.28267	962.80993	-699.48826	-471.50883	1017.41701	-618.41144	-185.72180	1465.90313	-568.77677	-165.38261	1418.73173	-387.90532	-117.34968	1427.47615	-706.63738	-82.68688	1343.94658	-526.31662	-81.18098	1343.53625	-578.01594	-307.90992	1372.27868	-308.50962	-540.45096	1403.46051	-377.50847	-519.44704	1390.43511	-291.27323	-599.20371	1228.36484	-328.74699	-674.25008	1137.59582	-352.22622	-701.93336	1153.59512	-322.77927	-184.44985	1410.80656	-856.31318	-393.78541	1383.05343	-958.67188	-331.38906	1422.90044	-999.45022	-264.36393	1269.14571	-1032.23098	-225.49581	1176.58810	-1093.21490	-241.44586	1192.64510	-1135.49714	-373.56745	873.47383	-483.66923	-364.95526	884.76631	-696.57996	-366.68491	882.19595	-485.31512	-362.72619	892.38919	-654.89640	
149	1.48000000	-138.26487	494.29453	-379.87837	-110.37259	371.09955	-396.71215	-289.73113	95.38897	-468.69557	-354.21312	68.13232	-537.97174	-189.35482	38.00116	-396.73341	-126.05414	56.90362	-454.70988	-108.29401	535.69730	-848.11692	-65.03426	429.79145	-841.08632	-241.17026	120.40918	-853.26219	-314.39065	109.99196	-807.85319	-123.03612	17.68650	-854.81959	-88.97723	51.33041	-790.69855	-137.53955	265.48353	-440.18732	-181.30851	373.75142	-365.79564	-204.52045	260.34092	-390.50005	-142.69847	450.92019	-880.82630	-149.44698	330.94749	-900.96333	-181.09811	743.83699	-388.93381	-116.61918	651.68328	-391.01154	-137.46252	606.84840	-345.09550	-262.07963	683.36237	-338.26197	-190.81577	589.26392	-344.94896	-184.42678	785.02840	-818.72784	-96.66358	680.48280	-833.48248	-269.43538	718.08191	-852.36350	-180.55634	612.66118	-862.96860	-287.99485	909.04511	-444.29004	-472.55842	987.92735	-527.48961	-267.71984	933.15089	-699.82767	-467.45787	993.71171	-625.42428	-167.84257	1434.52232	-570.25285	-154.29587	1383.88281	-385.54856	-101.14957	1388.67204	-710.36565	-75.05063	1303.87393	-523.56795	-72.60029	1302.51485	-575.15476	-298.66452	1329.32806	-310.90104	-531.13236	1356.97116	-380.76007	-510.52813	1340.62936	-295.06694	-591.35840	1180.15108	-336.47591	-667.11484	1090.73721	-362.58920	-694.40551	1106.29853	-332.43571	-173.62505	1366.27220	-860.22119	-385.85052	1331.83788	-954.05489	-325.57613	1371.71656	-998.89383	-261.30282	1215.47564	-1032.59749	-229.40881	1120.13973	-1095.17067	-244.78966	1137.27711	-1135.86710	-376.93194	848.17309	-486.63863	-362.36742	857.35528	-699.33984	-369.53640	855.41745	-488.13612	-360.72619	865.43298	-657.55164	
150	1.49000000	-110.76484	493.55536	-374.87722	-90.40205	368.65650	-395.02817	-285.61372	101.47114	-466.80854	-351.89033	74.09186	-538.46203	-188.03699	37.53167	-397.23812	-123.78268	56.27247	-454.53061	-92.85491	521.20925	-846.09657	-55.52272	413.35207	-834.24399	-248.44968	116.21765	-848.60266	-323.45098	96.60665	-802.08518	-125.73294	19.85685	-854.75626	-94.04752	52.44788	-789.05211	-125.57539	265.03942	-438.13871	-160.30682	375.89290	-362.42217	-191.42482	264.67248	-386.01939	-128.94309	439.95132	-878.19039	-146.17390	320.25826	-894.07581	-175.84778	738.02016	-389.60250	-103.30464	652.36694	-390.90656	-120.38366	605.93302	-344.99640	-250.98449	671.38422	-337.46342	-171.90162	583.53222	-344.94400	-178.96854	765.70031	-819.17195	-87.36274	664.11214	-832.53840	-261.54376	695.58597	-852.60365	-169.30991	592.45818	-859.28968	-290.21194	883.91936	-443.43540	-470.86009	966.34956	-534.66867	-266.20295	904.14630	-698.63499	-463.18420	974.51540	-632.28319	-148.79465	1403.86880	-571.71725	-142.83730	1349.88241	-383.71740	-85.03567	1350.12311	-713.22130	-64.75244	1267.61778	-520.61523	-61.92721	1264.78051	-572.07158	-288.34061	1287.50900	-313.49404	-521.08557	1310.32622	-383.68409	-500.23896	1290.99307	-298.22279	-581.24789	1131.61450	-342.88152	-657.55024	1042.75597	-370.57910	-683.96985	1057.92194	-339.40657	-162.05764	1320.99929	-863.53886	-375.77369	1280.31922	-950.24733	-317.23909	1319.63494	-998.85422	-255.89068	1160.90904	-1032.55740	-230.20971	1063.00106	-1094.99239	-246.76602	1081.00932	-1134.27886	-381.62914	825.71441	-488.50244	-361.44260	831.73923	-700.85313	-372.32513	827.05002	-491.28653	-359.08397	841.14808	-659.85190	
151	1.50000000	-89.92591	493.41233	-369.31530	-75.95883	366.45351	-392.81167	-282.83695	106.39654	-465.04611	-349.62072	80.07818	-538.61168	-187.23037	36.43330	-397.61904	-122.39324	55.83375	-454.17908	-79.11498	510.94080	-844.41597	-46.86142	399.80268	-827.61589	-249.65501	110.29623	-842.45984	-326.68863	88.37746	-794.21620	-126.54703	22.28853	-853.72131	-94.35685	52.98631	-786.56073	-115.97334	264.71856	-436.18931	-144.70096	375.89409	-358.43127	-180.89023	266.73787	-382.21370	-117.27244	427.91461	-875.79354	-139.15103	309.34245	-888.16399	-173.57394	733.31680	-394.16849	-94.80041	653.29567	-392.19869	-106.56517	609.02823	-343.45197	-242.10268	663.98074	-336.41070	-156.18225	582.57741	-340.11005	-177.11314	751.05951	-817.65619	-81.20516	652.80717	-830.66261	-256.00027	678.00547	-853.90858	-160.02823	578.33247	-858.93560	-292.17994	861.40724	-441.69309	-468.83415	946.46947	-540.99051	-265.48038	876.35023	-696.01830	-459.20411	957.66000	-638.07322	-130.30768	1373.50731	-572.18963	-131.01756	1316.42942	-382.38036	-69.57222	1312.78593	-714.77761	-52.77441	1233.66433	-518.19964	-50.02783	1229.67186	-569.55626	-277.01207	1247.43700	-315.81105	-510.21553	1264.40898	-386.23658	-488.58699	1243.12634	-300.74500	-568.73972	1083.90092	-347.84279	-644.97699	994.56762	-375.80457	-670.27429	1009.42108	-343.53960	-149.81189	1275.60584	-865.85388	-363.80276	1229.16643	-947.16810	-306.55785	1267.34616	-999.00687	-248.44239	1105.87214	-1031.57888	-227.05147	1006.27234	-1092.42657	-246.62420	1024.37892	-1130.68632	-386.37149	805.83546	-489.02137	-361.20283	807.59900	-700.90283	-374.26860	799.58353	-493.43937	-357.68015	818.85027	-660.57723	
